<svg id="Warstwa_25" data-name="Warstwa 25" xmlns="http://www.w3.org/2000/svg" viewBox="0 0 269.84 299"><defs><style>.cls-1{fill:#0099ed;}.cls-1,.cls-2{fill-rule:evenodd;}.cls-2{fill:#fff;}</style></defs><title>dj-messages</title><g id="Kształt_2_kopia_6_copy_6" data-name="Kształt 2 kopia 6 copy 6"><path class="cls-1" d="M263.86,75.12c8-4.6-128.94-83.58-128.94-74.37C134.92-8.46-2,70.52,6,75.12c-8-4.6-8,153.36,0,148.76-8,4.6,128.94,83.58,128.94,74.37,0,9.21,136.92-69.77,128.94-74.37C271.84,228.48,271.84,70.52,263.86,75.12Z" transform="translate(0 0)"/></g><g id="Elipsa_1_kopia_2" data-name="Elipsa 1 kopia 2"><path class="cls-2" d="M84.29,164.81a3.84,3.84,0,0,0,0,7.68h.32a3.84,3.84,0,0,0,0-7.68ZM190.76,85.08H132.58a18.51,18.51,0,0,0-18.5,18.44v25.91H74.3A18.58,18.58,0,0,0,55.86,148V191.2A18.41,18.41,0,0,0,74.3,209.58h53.53L144.47,225a3.86,3.86,0,0,0,2.56,1,3.62,3.62,0,0,0,1.51-.31,3.78,3.78,0,0,0,2.24-3.49V177.1a3.8,3.8,0,1,0-7.6,0v36.47L131.83,203a3.8,3.8,0,0,0-2.53-1.08h-55A10.77,10.77,0,0,1,63.45,191.2V148A10.94,10.94,0,0,1,74.3,137.1h39.78v40.68a3.9,3.9,0,0,0,2.34,3.51,3.83,3.83,0,0,0,4.13-.67l13.93-12.84,1-.91c.75-.7,1.53-1.42,1.84-1.64.31,0,1.09,0,1.78,0l2.42,0h49.24A18.35,18.35,0,0,0,209,146.72v-43.2A18.28,18.28,0,0,0,190.76,85.08Zm10.64,61.64a10.71,10.71,0,0,1-10.64,10.85H141.52l-2.26,0c-4.54-.1-5.43.42-8.92,3.67-.29.27-.68.57-1,.89l-7.63,7V103.52a10.87,10.87,0,0,1,10.91-10.76h58.18a10.64,10.64,0,0,1,10.64,10.76ZM97.48,164.81a3.84,3.84,0,0,0,0,7.68h.32a3.84,3.84,0,0,0,0-7.68Zm64.1-43.52a3.93,3.93,0,1,0,3.86,3.92A3.9,3.9,0,0,0,161.58,121.29Zm-12.53,0a3.93,3.93,0,1,0,3.87,3.92A3.89,3.89,0,0,0,149.05,121.29Zm25,0a3.93,3.93,0,1,0,3.87,3.92A3.9,3.9,0,0,0,174.1,121.29Z" transform="translate(0 0)"/></g></svg>